<svg xmlns="http://www.w3.org/2000/svg" viewBox="0 0 230.3 82.46"><defs><style>.cls-1{fill:#00c9ea;}.cls-2{fill:#f4f8f9;}</style></defs><title>logo_1</title><g id="Layer_2" data-name="Layer 2"><g id="Layer_1-2" data-name="Layer 1"><path class="cls-1" d="M34.37,39.6H15.19L11.62,49.68H0L17,4.5,11.85,0l8.74,0H31.5L50,49.68h-12ZM18.83,29.52h12L24.92,12.36Z"/><path class="cls-1" d="M87.5,49.68,67.06,17.05V49.68h-11V0H69.51L88.13,30.22V0H99.19V49.68Z"/><path class="cls-1" d="M109.9,49.68V0h11.2V49.68Z"/><path class="cls-1" d="M177.17,49.68V16.77L164.22,49.68h-9L142.31,17.19V49.68h-10.5V0h14.42l13.65,33.54L172.83,0H188V49.68Z"/><path class="cls-1" d="M198.8,49.68V0h31.43V10.47H209.86v9.45h18.48v9.74H209.86v9.52H230.3v10.5Z"/><path class="cls-2" d="M52.5,68.5A12.39,12.39,0,0,1,65.06,55.77c7.3,0,10.53,4.7,11.32,8.2l-5.11,1.61c-.38-1.68-1.92-4.53-6.21-4.53-3.26,0-6.93,2.34-6.93,7.45a6.88,6.88,0,0,0,7,7.2,6.2,6.2,0,0,0,6.38-4.56l5.18,1.47c-.79,3.36-4,8.51-11.56,8.51A12.24,12.24,0,0,1,52.5,68.5Z"/><path class="cls-2" d="M80.39,80.61V56.29h15.4V61.4h-10V66h9v4.76h-9v4.67h10v5.15Z"/><path class="cls-2" d="M115.78,80.61l-10-16v16h-5.39V56.29H107l9.12,14.78V56.29h5.42V80.61Z"/><path class="cls-2" d="M137.66,61.46V80.61h-5.42V61.46h-7.47V56.29h20.41v5.17Z"/><path class="cls-2" d="M155.81,71.55h-1.92v9.06h-5.42V56.29h9.64c4.8,0,7.88,3.29,7.88,7.61a7,7,0,0,1-4.8,6.86l4.94,9.85h-6Zm1.27-4.67c2.23,0,3.43-1.23,3.43-2.95s-1.2-3-3.43-3h-3.19v5.9Z"/><path class="cls-2" d="M184.51,75.67h-9.39l-1.75,4.94h-5.7l9.16-24.32h6.28l9,24.32h-5.9Zm-7.61-4.94h5.9l-2.92-8.41Z"/><path class="cls-2" d="M195.14,80.61V56.29h5.42V75.43h10.5v5.18Z"/><path class="cls-2" d="M21.26,62.79l-.15.35a7.6,7.6,0,0,0-1.88,1.94c-.49.75-1,1.49-1.49,2.23l.58.3.33.55-.33.44a26.55,26.55,0,0,1-3.64.36c-1.21.06-2.41.1-3.61.14q.27,2.91.27,6c0,4.25-.48,6.69-1.44,7.34-.37-.43-.56-1.95-.56-4.55,0-1.31.05-3,.15-5.08.12-2.35.17-3.56.17-3.64L5,69.72l-.24,1.11-.73.5a33.4,33.4,0,0,1-1.15-4.16,36.13,36.13,0,0,0-1.46-5.05,9,9,0,0,1,1.33.23,6.49,6.49,0,0,0,1.34.21A21.85,21.85,0,0,0,7,62.32l2.91-.41V60.83c0-2.63-.46-4.58-1.38-5.88a4.65,4.65,0,0,1,3.61,1.32,20.36,20.36,0,0,0-.7,5.38A29.12,29.12,0,0,0,14.68,61a15.27,15.27,0,0,1,3.29-.5,3.58,3.58,0,0,1,1.82.82A5.92,5.92,0,0,1,21.26,62.79Zm-11.48,0-5.93.44c.43,2.08.76,4,1,5.67,1.08-.1,2.68-.31,4.81-.62q.15-1.82.15-4.14Zm8-.14-.09-.33-.21-.14q-2,.07-6,.32l-.32,5.63a21.92,21.92,0,0,0,2.67-.38,18.94,18.94,0,0,1,2.67-.26c.24-.8.48-1.61.74-2.41a13.11,13.11,0,0,0,.47-2.43Z"/><path class="cls-2" d="M46.91,76.59a48.93,48.93,0,0,1-5.1.5,5.64,5.64,0,0,1-3.47-1.35,20.74,20.74,0,0,1-2.87-2.94,36.49,36.49,0,0,0-2.65-2.88c0,.67.08,1.68.18,3s.15,2.4.15,3.1q0,4.91-1.47,5.46a2.85,2.85,0,0,1-.94-2.17,37.13,37.13,0,0,1,.38-4.41c.26-2,.39-3.45.41-4.37a36.17,36.17,0,0,1-4.72,4.64,21,21,0,0,1-5.76,3.23l-.64-.15Q26,75.77,31.15,68.81l-3.26.47-.26.47-.56.17a32,32,0,0,0-3-6.78l.06-.17c.15,0,.55.16,1.2.38a4,4,0,0,0,1.14.26A11.7,11.7,0,0,0,29,63.29l2.49-.59V60.09l-1.32.29a7.47,7.47,0,0,1-1.35.15A2.78,2.78,0,0,1,27,59.42a15.34,15.34,0,0,0,4.49-.5c-.1-1.63-.14-2.45-.14-2.47a5.13,5.13,0,0,0-.8-2.32,12.13,12.13,0,0,1,1.53.06,3.3,3.3,0,0,1,1.44.53c-.16.84-.32,2.11-.5,3.82L34.73,58a11.67,11.67,0,0,1,1.44-.44l1.15.14.52.44-.2.39L33.06,59.8v2.58a20.57,20.57,0,0,0,2.67-.67,9.76,9.76,0,0,1,2.7-.5,4.06,4.06,0,0,1,1.67.55,5.84,5.84,0,0,1,1.47,1c-1.17,1.69-1.88,2.71-2.11,3.08-.73,1.12-1.36,2.2-1.91,3.23l-.23.12L36.85,69l.26-.91-4.2.56Q37.64,74.33,46.91,76.59Zm-15.38-13c-1.46.18-3.11.42-4.93.74a17.48,17.48,0,0,1,.62,2.11c.23,1.06.4,1.77.5,2.14l3.78-.52ZM30,66.7c0,.6-.11.91-.33.91a.38.38,0,0,1-.25-.17,1.89,1.89,0,0,1-.27-.54,5.06,5.06,0,0,0-1.21-1.64,4.23,4.23,0,0,1,1.47.17A1.33,1.33,0,0,1,30,66.7Zm8.25-3.79c0-.35-.17-.53-.39-.53a9.39,9.39,0,0,0-2.4.44,24.64,24.64,0,0,1-2.44.56c0,1-.06,2.56-.18,4.58l4.5-.59a21.91,21.91,0,0,0,.88-4.46Zm-1.5,1.44c-.63.58-1.63,1.41-3,2.46.22-.56.43-1.12.65-1.67.35-.84.66-1.26.91-1.26C36.25,63.88,36.73,64,36.73,64.35Z"/></g></g></svg>